<svg width="30" height="30" viewBox="0 0 30 30" fill="none" xmlns="http://www.w3.org/2000/svg">
<g id="Facebook logo" clip-path="url(#clip0_7_1394)">
<g id="XMLID_17_">
<path id="XMLID_22_" d="M30 15C30 6.71484 23.2852 0 15 0C6.71484 0 0 6.71484 0 15C0 22.4877 5.48203 28.6934 12.6574 29.8189V19.3395H8.85176V15H12.6574V11.6959C12.6574 7.93945 14.8928 5.86055 18.3205 5.86055C19.9641 5.86055 21.682 6.15645 21.682 6.15645V9.84668H19.7918C17.9262 9.84668 17.3508 11.0057 17.3508 12.1893V15H21.5098L20.8441 19.3395H17.3508V29.8189C24.518 28.6934 30 22.4877 30 15Z" fill="#1877F2"/>
<path id="XMLID_18_" d="M20.8355 19.3395L21.5018 15H17.3428V12.1893C17.3428 11.0057 17.9264 9.84673 19.7838 9.84673H21.674V6.15649C21.674 6.15649 19.9561 5.8606 18.3125 5.8606C14.8854 5.8606 12.6494 7.94009 12.6494 11.6959V15H8.84375V19.3395H12.6494V29.819C13.4141 29.942 14.1945 30.0001 14.992 30.0001C15.7895 30.0001 16.5699 29.9344 17.3346 29.819V19.3395H20.8355Z" fill="white"/>
</g>
</g>
<defs>
<clipPath id="clip0_7_1394">
<rect width="30" height="30" fill="white"/>
</clipPath>
</defs>
</svg>
