<svg width="30" height="30" viewBox="0 0 30 30" fill="none" xmlns="http://www.w3.org/2000/svg">
<g id="instagram-icon logo" clip-path="url(#clip0_7_1398)">
<path id="Vector" d="M15.0047 0.00805664C8.74232 0.00805664 6.91081 0.014517 6.5548 0.04405C5.26965 0.150876 4.46996 0.353224 3.59873 0.78699C2.92732 1.12039 2.3978 1.50686 1.8752 2.0486C0.923457 3.03657 0.346641 4.25204 0.137833 5.69685C0.0363132 6.39826 0.0067802 6.54131 0.000781311 10.124C-0.00152596 11.3183 0.000781311 12.89 0.000781311 14.9981C0.000781311 21.2554 0.00770311 23.0851 0.0376976 23.4404C0.141525 24.691 0.337642 25.4777 0.75295 26.3384C1.54665 27.9857 3.06252 29.2224 4.84835 29.6839C5.4667 29.8431 6.14965 29.9308 7.02641 29.9723C7.39788 29.9884 11.1841 30 14.9726 30C18.7612 30 22.5497 29.9954 22.9119 29.9769C23.9271 29.9292 24.5166 29.85 25.1684 29.6816C26.0539 29.4545 26.8792 29.0369 27.5865 28.4578C28.2939 27.8788 28.8663 27.1523 29.2638 26.3291C29.6711 25.4893 29.8776 24.6725 29.971 23.4873C29.9913 23.2288 29.9999 19.1088 29.9999 14.9942C29.9999 10.879 29.9906 6.7665 29.9703 6.50809C29.8757 5.30369 29.6692 4.49384 29.2488 3.63785C28.9039 2.93713 28.5209 2.41384 27.9649 1.87879C26.9727 0.930963 25.7591 0.354147 24.3127 0.14557C23.612 0.0442807 23.4724 0.0142863 19.8869 0.00805664H15.0047Z" fill="url(#paint0_radial_7_1398)"/>
<path id="Vector_2" d="M15.0047 0.00805664C8.74232 0.00805664 6.91081 0.014517 6.5548 0.04405C5.26965 0.150876 4.46996 0.353224 3.59873 0.78699C2.92732 1.12039 2.3978 1.50686 1.8752 2.0486C0.923457 3.03657 0.346641 4.25204 0.137833 5.69685C0.0363132 6.39826 0.0067802 6.54131 0.000781311 10.124C-0.00152596 11.3183 0.000781311 12.89 0.000781311 14.9981C0.000781311 21.2554 0.00770311 23.0851 0.0376976 23.4404C0.141525 24.691 0.337642 25.4777 0.75295 26.3384C1.54665 27.9857 3.06252 29.2224 4.84835 29.6839C5.4667 29.8431 6.14965 29.9308 7.02641 29.9723C7.39788 29.9884 11.1841 30 14.9726 30C18.7612 30 22.5497 29.9954 22.9119 29.9769C23.9271 29.9292 24.5166 29.85 25.1684 29.6816C26.0539 29.4545 26.8792 29.0369 27.5865 28.4578C28.2939 27.8788 28.8663 27.1523 29.2638 26.3291C29.6711 25.4893 29.8776 24.6725 29.971 23.4873C29.9913 23.2288 29.9999 19.1088 29.9999 14.9942C29.9999 10.879 29.9906 6.7665 29.9703 6.50809C29.8757 5.30369 29.6692 4.49384 29.2488 3.63785C28.9039 2.93713 28.5209 2.41384 27.9649 1.87879C26.9727 0.930963 25.7591 0.354147 24.3127 0.14557C23.612 0.0442807 23.4724 0.0142863 19.8869 0.00805664H15.0047Z" fill="url(#paint1_radial_7_1398)"/>
<path id="Vector_3" d="M14.9977 3.93042C11.9899 3.93042 11.6125 3.94357 10.4311 3.99733C9.25213 4.05132 8.44736 4.23798 7.74318 4.51185C7.01478 4.79472 6.39689 5.17311 5.78131 5.78892C5.16527 6.4045 4.78688 7.02239 4.50309 7.75056C4.22852 8.45497 4.04164 9.25997 3.98857 10.4385C3.93596 11.6198 3.92212 11.9975 3.92212 15.0053C3.92212 18.0131 3.9355 18.3894 3.98903 19.5707C4.04325 20.7497 4.22991 21.5545 4.50355 22.2587C4.78665 22.9871 5.16504 23.6049 5.78085 24.2205C6.3962 24.8366 7.01409 25.2159 7.74203 25.4987C8.44667 25.7726 9.25167 25.9593 10.4305 26.0133C11.6118 26.067 11.989 26.0802 14.9965 26.0802C18.0045 26.0802 18.3808 26.067 19.5622 26.0133C20.7412 25.9593 21.5469 25.7726 22.2515 25.4987C22.9797 25.2159 23.5966 24.8366 24.212 24.2205C24.828 23.6049 25.2064 22.9871 25.4902 22.2589C25.7625 21.5545 25.9494 20.7495 26.0047 19.5709C26.0578 18.3896 26.0716 18.0131 26.0716 15.0053C26.0716 11.9975 26.0578 11.6201 26.0047 10.4388C25.9494 9.25974 25.7625 8.45497 25.4902 7.75079C25.2064 7.02239 24.828 6.4045 24.212 5.78892C23.5959 5.17288 22.9799 4.79449 22.2508 4.51185C21.5448 4.23798 20.7396 4.05132 19.5605 3.99733C18.3792 3.94357 18.0031 3.93042 14.9945 3.93042H14.9977ZM14.0042 5.92621C14.299 5.92574 14.6281 5.92621 14.9977 5.92621C17.9547 5.92621 18.3052 5.93682 19.4729 5.98989C20.5527 6.03926 21.1387 6.21969 21.5291 6.37128C22.0459 6.57201 22.4144 6.81197 22.8018 7.19959C23.1894 7.58721 23.4294 7.95637 23.6306 8.4732C23.7821 8.86312 23.9628 9.44917 24.0119 10.529C24.065 11.6964 24.0765 12.0472 24.0765 15.0028C24.0765 17.9584 24.065 18.3091 24.0119 19.4766C23.9626 20.5564 23.7821 21.1424 23.6306 21.5323C23.4298 22.0492 23.1894 22.4172 22.8018 22.8046C22.4142 23.1922 22.0462 23.4321 21.5291 23.6329C21.1392 23.7851 20.5527 23.9651 19.4729 24.0145C18.3054 24.0675 17.9547 24.0791 14.9977 24.0791C12.0405 24.0791 11.69 24.0675 10.5225 24.0145C9.44271 23.9646 8.85667 23.7842 8.46605 23.6326C7.94922 23.4319 7.58006 23.1919 7.19244 22.8043C6.80482 22.4167 6.56486 22.0485 6.36367 21.5314C6.21208 21.1415 6.03142 20.5554 5.98228 19.4756C5.92921 18.3082 5.9186 17.9574 5.9186 15C5.9186 12.0425 5.92921 11.6937 5.98228 10.5262C6.03165 9.4464 6.21208 8.86036 6.36367 8.46997C6.5644 7.95314 6.80482 7.58398 7.19244 7.19636C7.58006 6.80873 7.94922 6.56878 8.46605 6.36759C8.85644 6.21531 9.44271 6.03534 10.5225 5.98573C11.5442 5.93959 11.9401 5.92574 14.0042 5.92344V5.92621ZM20.9094 7.7651C20.6465 7.7651 20.3895 7.84305 20.171 7.9891C19.9524 8.13515 19.7821 8.34274 19.6815 8.58561C19.5809 8.82847 19.5546 9.09571 19.606 9.35352C19.6573 9.61133 19.7839 9.84814 19.9698 10.034C20.1557 10.2198 20.3925 10.3464 20.6504 10.3976C20.9082 10.4488 21.1754 10.4224 21.4183 10.3218C21.6611 10.2211 21.8686 10.0507 22.0146 9.83209C22.1606 9.61348 22.2384 9.35649 22.2384 9.09362C22.2384 8.35991 21.6431 7.76464 20.9094 7.76464V7.7651ZM14.9977 9.31789C11.8568 9.31789 9.31028 11.8644 9.31028 15.0053C9.31028 18.1462 11.8568 20.6916 14.9977 20.6916C18.1386 20.6916 20.6844 18.1462 20.6844 15.0053C20.6844 11.8644 18.1383 9.31789 14.9975 9.31789H14.9977ZM14.9977 11.3137C17.0364 11.3137 18.6893 12.9664 18.6893 15.0053C18.6893 17.044 17.0364 18.6969 14.9977 18.6969C12.9588 18.6969 11.3061 17.044 11.3061 15.0053C11.3061 12.9664 12.9588 11.3137 14.9977 11.3137Z" fill="white"/>
</g>
<defs>
<radialGradient id="paint0_radial_7_1398" cx="0" cy="0" r="1" gradientUnits="userSpaceOnUse" gradientTransform="translate(7.96857 32.31) rotate(-90) scale(29.7242 27.6534)">
<stop stop-color="#FFDD55"/>
<stop offset="0.1" stop-color="#FFDD55"/>
<stop offset="0.5" stop-color="#FF543E"/>
<stop offset="1" stop-color="#C837AB"/>
</radialGradient>
<radialGradient id="paint1_radial_7_1398" cx="0" cy="0" r="1" gradientUnits="userSpaceOnUse" gradientTransform="translate(-5.02542 2.16862) rotate(78.6776) scale(13.287 54.7833)">
<stop stop-color="#3771C8"/>
<stop offset="0.128" stop-color="#3771C8"/>
<stop offset="1" stop-color="#6600FF" stop-opacity="0"/>
</radialGradient>
<clipPath id="clip0_7_1398">
<rect width="30" height="29.9919" fill="white" transform="translate(0 0.00805664)"/>
</clipPath>
</defs>
</svg>
