<svg width="30" height="30" viewBox="0 0 30 30" fill="none" xmlns="http://www.w3.org/2000/svg">
<g id="YouTube logo">
<g clip-path="url(#clip0_7_1407)">
<path id="Vector" d="M29.9912 0H0.00878906C0.003935 0 0 0.003935 0 0.00878906V29.9912C0 29.9961 0.003935 30 0.00878906 30H29.9912C29.9961 30 30 29.9961 30 29.9912V0.00878906C30 0.003935 29.9961 0 29.9912 0Z" fill="#ED1D24"/>
<path id="Vector_2" d="M25.0193 9.90214C24.785 9.02324 24.0232 8.32011 23.1443 8.08574C21.1521 7.55839 9.14043 7.4998 6.85527 8.08574C5.97636 8.32011 5.21464 9.02324 4.98027 9.90214C4.45293 12.1287 4.39433 17.8123 4.98027 20.0975C5.21464 20.9764 5.97636 21.6795 6.85527 21.9139C8.96464 22.4998 20.9764 22.4998 23.1443 21.9139C24.0232 21.6795 24.785 20.9764 25.0193 20.0975C25.5467 17.9881 25.5467 12.0701 25.0193 9.90214Z" fill="white"/>
<path id="Vector_3" d="M12.8906 11.8945V18.1055L18.3398 15" fill="#ED1D24"/>
</g>
</g>
<defs>
<clipPath id="clip0_7_1407">
<rect width="30" height="30" rx="6.89922" fill="white"/>
</clipPath>
</defs>
</svg>
